# Blender v2.66 (sub 1) OBJ File: ''
# www.blender.org
mtllib cube.mtl
o Box001
v -2.000000 -0.500002 5.000000
v -2.000000 -0.499998 -5.000000
v 2.000000 -0.499998 -5.000000
v 2.000000 -0.500002 5.000000
v -2.000000 0.499998 5.000000
v 2.000000 0.499998 5.000000
v 2.000000 0.500002 -5.000000
v -2.000000 0.500002 -5.000000
vt 1.000000 0.000000
vt 1.000000 1.000000
vt 0.000000 1.000000
vt 0.000000 0.000000
vn -0.000000 -1.000000 -0.000000
vn 0.000000 1.000000 0.000000
vn 0.000000 0.000000 1.000000
vn 1.000000 0.000000 0.000000
vn 0.000000 0.000000 -1.000000
vn -1.000000 -0.000000 -0.000000
usemtl wire_229154215
s off
f 1/1/1 2/2/1 3/3/1
f 4/4/1 1/1/1 3/3/1
f 5/4/2 6/1/2 7/2/2
f 7/2/2 8/3/2 5/4/2
f 1/4/3 4/1/3 6/2/3
f 5/3/3 1/4/3 6/2/3
f 4/4/4 3/1/4 7/2/4
f 7/2/4 6/3/4 4/4/4
f 3/4/5 2/1/5 8/2/5
f 8/2/5 7/3/5 3/4/5
f 2/4/6 1/1/6 5/2/6
f 5/2/6 8/3/6 2/4/6
